<?xml version="1.0" encoding="UTF-8" standalone="no"?>
<!-- Created with Inkscape (http://www.inkscape.org/) -->

<svg
   xmlns:osb="http://www.openswatchbook.org/uri/2009/osb"
   xmlns:dc="http://purl.org/dc/elements/1.1/"
   xmlns:cc="http://creativecommons.org/ns#"
   xmlns:rdf="http://www.w3.org/1999/02/22-rdf-syntax-ns#"
   xmlns:svg="http://www.w3.org/2000/svg"
   xmlns="http://www.w3.org/2000/svg"
   xmlns:sodipodi="http://sodipodi.sourceforge.net/DTD/sodipodi-0.dtd"
   xmlns:inkscape="http://www.inkscape.org/namespaces/inkscape"
   width="210mm"
   height="297mm"
   viewBox="0 0 744.09448819 1052.3622047"
   id="svg2"
   version="1.1"
   inkscape:version="0.91 r13725"
   sodipodi:docname="icon.svg">
  <defs
     id="defs4">
    <marker
       inkscape:stockid="Arrow1Lstart"
       orient="auto"
       refY="0.0"
       refX="0.0"
       id="marker6004"
       style="overflow:visible"
       inkscape:isstock="true">
      <path
         id="path6006"
         d="M 0.0,0.0 L 5.0,-5.0 L -12.5,0.0 L 5.0,5.0 L 0.0,0.0 z "
         style="fill-rule:evenodd;stroke:#000000;stroke-width:1.0pt"
         transform="scale(0.8) translate(12.5,0)" />
    </marker>
    <marker
       inkscape:stockid="Arrow1Lstart"
       orient="auto"
       refY="0.0"
       refX="0.0"
       id="Arrow1Lstart"
       style="overflow:visible"
       inkscape:isstock="true">
      <path
         id="path5740"
         d="M 0.0,0.0 L 5.0,-5.0 L -12.5,0.0 L 5.0,5.0 L 0.0,0.0 z "
         style="fill-rule:evenodd;stroke:#000000;stroke-width:1.0pt"
         transform="scale(0.8) translate(12.5,0)" />
    </marker>
    <linearGradient
       id="linearGradient5677"
       osb:paint="solid">
      <stop
         style="stop-color:#7088ff;stop-opacity:1;"
         offset="0"
         id="stop5679" />
    </linearGradient>
    <inkscape:path-effect
       effect="sketch"
       id="path-effect4185"
       is_visible="true"
       nbiter_approxstrokes="10"
       strokelength="40"
       strokelength_rdm="2.7755576e-17;1"
       strokeoverlap="0.3"
       strokeoverlap_rdm="0.3;1"
       ends_tolerance="0;1"
       parallel_offset="4.8;1"
       tremble_size="5;1"
       tremble_frequency="0.01"
       nbtangents="5"
       tgt_places_rdmness="1;1"
       tgtscale="10"
       tgtlength="100"
       tgtlength_rdm="0.3;1" />
    <inkscape:path-effect
       effect="sketch"
       id="path-effect4166"
       is_visible="true"
       nbiter_approxstrokes="5"
       strokelength="100"
       strokelength_rdm="0.3;1"
       strokeoverlap="0.3"
       strokeoverlap_rdm="0.3;1"
       ends_tolerance="0.1;1"
       parallel_offset="5;1"
       tremble_size="5;1"
       tremble_frequency="1"
       nbtangents="5"
       tgt_places_rdmness="1;1"
       tgtscale="10"
       tgtlength="100"
       tgtlength_rdm="0.3;1" />
  </defs>
  <sodipodi:namedview
     id="base"
     pagecolor="#ffffff"
     bordercolor="#666666"
     borderopacity="1.0"
     inkscape:pageopacity="0.0"
     inkscape:pageshadow="2"
     inkscape:zoom="1.4"
     inkscape:cx="223.1483"
     inkscape:cy="662.37266"
     inkscape:document-units="px"
     inkscape:current-layer="layer1"
     showgrid="false"
     inkscape:window-width="1439"
     inkscape:window-height="758"
     inkscape:window-x="89"
     inkscape:window-y="92"
     inkscape:window-maximized="0" />
  <metadata
     id="metadata7">
    <rdf:RDF>
      <cc:Work
         rdf:about="">
        <dc:format>image/svg+xml</dc:format>
        <dc:type
           rdf:resource="http://purl.org/dc/dcmitype/StillImage" />
        <dc:title></dc:title>
      </cc:Work>
    </rdf:RDF>
  </metadata>
  <g
     inkscape:label="Layer 1"
     inkscape:groupmode="layer"
     id="layer1">
    <text
       xml:space="preserve"
       style="font-style:normal;font-weight:normal;font-size:40px;line-height:125%;font-family:Sans;letter-spacing:0px;word-spacing:0px;fill:#000000;fill-opacity:1;stroke:none;stroke-width:1px;stroke-linecap:butt;stroke-linejoin:miter;stroke-opacity:1"
       x="258.57144"
       y="412.36221"
       id="text3338"
       sodipodi:linespacing="125%"><tspan
         sodipodi:role="line"
         id="tspan3340"
         x="258.57144"
         y="412.36221"></tspan></text>
    <rect
       style="opacity:1;fill:none;fill-opacity:1;stroke:none;stroke-width:1.00800002;stroke-miterlimit:4;stroke-dasharray:none;stroke-opacity:1"
       id="rect4227"
       width="344.28571"
       height="344.28571"
       x="106.42857"
       y="257.36221"
       inkscape:export-xdpi="90"
       inkscape:export-ydpi="90" />
    <rect
       style="opacity:1;fill:#ffffff;fill-opacity:1;stroke:#000000;stroke-width:10.33529282;stroke-linecap:round;stroke-linejoin:round;stroke-miterlimit:10.10000038;stroke-dasharray:none;stroke-opacity:1"
       id="rect4231"
       width="203.37271"
       height="289.80127"
       x="176.88507"
       y="285.67584" />
    <g
       id="g6046"
       transform="matrix(1.6403707,0,0,1.7761052,-104.8596,-258.83618)">
      <path
         style="fill:#d1d1d1"
         d="m 205.61261,386.37887 c -4.69718,-0.77221 -6.95261,-4.2218 -5.17573,-7.91607 1.46682,-3.04966 5.59107,-6.05159 9.86601,-7.1812 1.57752,-0.41685 2.595,-0.52312 4.34462,-0.45377 1.76227,0.0698 3.04991,0.31021 3.97107,0.74127 0.35176,0.16461 0.65659,0.29929 0.67741,0.29929 0.0208,0 0.0379,-10.5452 0.0379,-23.43376 l 0,-23.43376 0.21968,-0.0956 c 0.2289,-0.0996 47.34237,-7.41789 47.75464,-7.41789 0.12923,0 0.26164,0.0695 0.29423,0.15443 0.0326,0.0849 0.0593,11.81727 0.0593,26.07184 0,23.30151 -0.0157,25.99337 -0.15513,26.66994 -0.89988,4.36532 -6.66172,8.34091 -12.91564,8.91161 -4.08963,0.37319 -7.57238,-1.33337 -8.42068,-4.12618 -0.39901,-1.31367 -0.11777,-3.06397 0.71335,-4.43958 1.84359,-3.05139 5.97213,-5.79399 10.20825,-6.78138 1.23441,-0.28773 3.89458,-0.35905 5.36139,-0.14376 1.12556,0.16521 1.8476,0.37191 2.5488,0.72963 0.22349,0.11402 0.43006,0.2073 0.45905,0.2073 0.0823,0 0.0618,-40.69552 -0.0205,-40.74486 -0.0569,-0.0341 -42.3075,6.4705 -43.64048,6.71856 l -0.31632,0.0589 -0.0254,23.40302 -0.0254,23.40301 -0.26061,0.71333 c -0.74395,2.03625 -2.16069,3.69632 -4.47454,5.24303 -2.048,1.36901 -4.3499,2.28898 -6.8562,2.74013 -1.15498,0.20791 -3.27529,0.25931 -4.22897,0.10253 z"
         id="path6060"
         inkscape:connector-curvature="0" />
      <path
         style="fill:#b6b6b6"
         d="m 205.33663,386.2704 c -1.3871,-0.28893 -2.51872,-0.78379 -3.529,-1.54323 -1.91597,-1.44026 -2.42482,-3.82242 -1.32189,-6.18834 1.48784,-3.1916 5.7408,-6.18684 10.45176,-7.36088 1.06712,-0.26594 3.75208,-0.36571 5.14847,-0.19131 0.99035,0.12369 2.57335,0.57398 2.90852,0.82735 0.1061,0.0802 0.24782,0.14721 0.31495,0.14892 0.0973,0.002 0.12204,-4.75703 0.12204,-23.48044 0,-19.37278 0.0226,-23.49221 0.129,-23.53304 0.0709,-0.0272 10.84585,-1.71158 23.94423,-3.74301 16.27096,-2.52346 23.85389,-3.66282 23.93727,-3.59667 0.0971,0.077 0.12204,5.43134 0.12204,26.18579 0,25.58661 -0.004,26.10337 -0.19125,26.83673 -0.95983,3.75292 -5.46001,7.18356 -10.93309,8.33467 -1.03773,0.21826 -1.48109,0.25877 -2.88584,0.26363 -1.92703,0.007 -2.833,-0.168 -4.18617,-0.80712 -1.92249,-0.90802 -3.03183,-2.24574 -3.27268,-3.94644 -0.44842,-3.16639 2.41517,-6.75442 7.26358,-9.10118 2.79802,-1.35431 5.09929,-1.8273 7.8749,-1.61857 1.88209,0.14153 2.92528,0.40448 4.20705,1.06043 0.0403,0.0206 0.0732,-9.17044 0.0732,-20.42456 l 0,-20.46202 -0.2221,0 c -0.15878,0 -40.08477,6.15255 -43.44221,6.6944 l -0.36455,0.0588 -0.026,23.30131 -0.026,23.30131 -0.23088,0.68342 c -0.77449,2.29258 -2.18349,3.96365 -4.76668,5.65329 -1.74084,1.13868 -3.93714,2.03414 -6.13248,2.50031 -1.28326,0.27249 -3.97939,0.35198 -4.96626,0.14642 z"
         id="path6058"
         inkscape:connector-curvature="0" />
      <path
         style="fill:#909090"
         d="m 205.95827,386.31789 c -1.06811,-0.14578 -1.85879,-0.38862 -2.91452,-0.89513 -3.45899,-1.65951 -4.09305,-5.14369 -1.5399,-8.46171 0.70925,-0.92171 2.19609,-2.26552 3.38311,-3.05764 2.38418,-1.59101 4.9659,-2.60367 7.41482,-2.9084 2.22984,-0.27747 5.04375,0.0595 6.47673,0.77555 0.32259,0.1612 0.60147,0.29309 0.61974,0.29309 0.0183,0 0.0332,-10.56716 0.0332,-23.48257 l 0,-23.48258 0.21967,-0.094 c 0.12082,-0.0517 10.91123,-1.74849 23.9787,-3.77063 19.73614,-3.0541 23.7736,-3.65361 23.8451,-3.54069 0.0491,0.0776 0.0867,11.23742 0.0876,25.9881 10e-4,23.22736 -0.0142,25.92858 -0.15338,26.6047 -0.32474,1.57793 -0.98964,2.71921 -2.43237,4.17513 -2.15209,2.17178 -5.08918,3.71838 -8.45917,4.45441 -0.8681,0.1896 -1.29423,0.22068 -3.01258,0.21973 -1.90829,-10e-4 -2.04213,-0.0137 -2.87532,-0.27093 -1.29797,-0.40078 -2.33552,-0.97902 -3.09143,-1.72289 -1.86132,-1.83169 -1.9279,-4.3686 -0.18193,-6.93279 1.88141,-2.7631 6.04934,-5.33877 10.05396,-6.21307 1.03516,-0.226 4.22314,-0.25342 5.36287,-0.0461 0.86564,0.15745 1.95011,0.51446 2.39161,0.78732 0.17546,0.10844 0.34772,0.16845 0.38281,0.13337 0.10561,-0.10562 0.0759,-40.92004 -0.0299,-40.9854 -0.12364,-0.0764 -43.85351,6.69183 -44.01157,6.81185 -0.097,0.0737 -0.12204,4.82941 -0.12204,23.20386 0,22.51988 -0.005,23.13006 -0.18861,23.84865 -0.7571,2.96026 -3.73994,5.78781 -7.80285,7.39666 -2.433,0.96342 -5.46316,1.44117 -7.43438,1.17213 z"
         id="path6056"
         inkscape:connector-curvature="0" />
      <path
         style="fill:#727272"
         d="m 205.33663,386.17276 c -2.66985,-0.55612 -4.56048,-1.9759 -5.14894,-3.86664 -1.00345,-3.2241 1.97701,-7.28949 7.13965,-9.73859 2.43869,-1.15688 4.20575,-1.57816 6.6158,-1.57726 2.23553,8.8e-4 4.04804,0.32457 4.96288,0.88642 0.16743,0.10283 0.37612,0.18696 0.46376,0.18696 0.14691,0 0.15933,-1.82973 0.15933,-23.47472 0,-16.45039 0.031,-23.49388 0.10363,-23.53876 0.154,-0.0952 47.56915,-7.43809 47.71161,-7.38882 0.0972,0.0336 0.12204,5.35668 0.12204,26.1766 0,22.99596 -0.0177,26.20239 -0.14747,26.70057 -0.2262,0.86845 -0.51642,1.49642 -1.11093,2.40382 -2.39928,3.662 -8.38172,6.46035 -13.28876,6.21596 -2.18236,-0.10869 -4.01782,-0.79928 -5.27407,-1.98436 -1.72534,-1.6276 -1.98141,-3.84336 -0.71389,-6.17739 1.70514,-3.13987 6.26647,-6.11751 10.72311,-7.00005 1.14632,-0.227 3.69609,-0.22638 5.05861,10e-4 0.92057,0.15379 2.44337,0.65782 2.56063,0.84755 0.031,0.0502 0.1197,0.0912 0.19707,0.0912 0.12205,0 0.14069,-2.72268 0.14069,-20.55152 l 0,-20.55152 -0.25668,0 c -0.41457,0 -43.8171,6.74324 -43.89578,6.81987 -0.0394,0.0384 -0.0842,10.54664 -0.0996,23.35169 -0.0313,26.02977 0.0426,23.5117 -0.73752,25.12795 -0.49198,1.01923 -1.08829,1.80019 -2.12089,2.77763 -2.04543,1.93617 -5.05925,3.44923 -8.198,4.11573 -1.28326,0.27249 -3.97939,0.35198 -4.96626,0.14641 z"
         id="path6054"
         inkscape:connector-curvature="0" />
      <path
         style="fill:#4b4b4b"
         d="m 205.88501,386.21381 c -2.15272,-0.27988 -4.17583,-1.36465 -5.0854,-2.72674 -2.23666,-3.34941 0.57771,-8.01546 6.57432,-10.89983 1.23874,-0.59583 2.78769,-1.12468 3.96452,-1.35357 2.44747,-0.47603 5.78772,-0.19116 7.44006,0.63452 0.32259,0.1612 0.62344,0.29309 0.66856,0.29309 0.0451,0 0.082,-10.56083 0.082,-23.46852 0,-18.65647 0.025,-23.48901 0.12204,-23.5684 0.14899,-0.12191 47.50409,-7.46959 47.68743,-7.39924 0.10825,0.0415 0.12593,4.48633 0.10463,26.29117 -0.0247,25.23515 -0.0326,26.26176 -0.20625,26.77814 -0.70245,2.08851 -2.19258,3.88439 -4.49573,5.41818 -3.78702,2.52197 -8.6543,3.53935 -12.12333,2.53407 -2.80623,-0.81322 -4.42992,-2.61832 -4.43412,-4.92955 -0.005,-2.91182 2.89545,-6.25829 7.22361,-8.33362 2.22111,-1.06501 3.93023,-1.51003 6.11136,-1.59127 2.30915,-0.086 4.07008,0.17924 5.35043,0.80593 0.37041,0.18131 0.7109,0.30651 0.75665,0.27824 0.0457,-0.0283 0.0832,-9.29839 0.0832,-20.60024 0,-16.57833 -0.0241,-20.55807 -0.12465,-20.59666 -0.14363,-0.0551 -44.0206,6.72836 -44.18745,6.83148 -0.0816,0.0505 -0.11043,6.10621 -0.11043,23.23445 0,22.72297 -0.004,23.18058 -0.19218,23.91765 -0.25108,0.9817 -0.82809,2.07587 -1.61021,3.05339 -2.82176,3.52677 -9.03118,5.99122 -13.59908,5.39733 z"
         id="path6052"
         inkscape:connector-curvature="0" />
      <path
         style="fill:#303030"
         d="m 205.33663,386.0687 c -2.61495,-0.51962 -4.47266,-1.90337 -5.05131,-3.76258 -1.00381,-3.22526 1.90916,-7.20639 7.06085,-9.64996 2.40658,-1.1415 4.19493,-1.56883 6.5655,-1.56883 2.31541,0 3.65608,0.23194 4.87629,0.84362 0.52403,0.26269 0.69251,0.30977 0.75516,0.21101 0.0443,-0.0699 0.0813,-10.68236 0.0821,-23.5832 8.2e-4,-12.90084 0.0125,-23.45743 0.0259,-23.45909 0.0134,-0.002 10.72242,-1.66423 23.79778,-3.6946 13.07536,-2.03037 23.80633,-3.67396 23.8466,-3.65242 0.0403,0.0215 0.0732,11.77979 0.0732,26.12944 0,28.88917 0.0546,26.50428 -0.64035,27.97763 -0.48646,1.03135 -1.06034,1.79087 -2.11118,2.7941 -2.94727,2.81374 -7.60726,4.58413 -11.60036,4.40712 -5.78063,-0.25626 -8.4546,-4.32187 -5.65905,-8.60422 1.88863,-2.89309 6.18183,-5.54618 10.29657,-6.36301 1.16027,-0.23034 3.80435,-0.22719 5.11193,0.006 0.93502,0.1668 2.00141,0.51815 2.38222,0.78488 0.11737,0.0822 0.29149,0.14948 0.38694,0.14948 0.16575,0 0.17354,-0.92671 0.17354,-20.64915 l 0,-20.64916 -0.29666,0 c -0.31153,0 -43.65679,6.69852 -43.95243,6.79235 -0.16176,0.0513 -0.17213,1.27465 -0.19825,23.40647 -0.0307,26.02373 0.0383,23.57075 -0.70717,25.14357 -1.85845,3.92116 -7.90314,7.17127 -13.26603,7.13288 -0.70476,-0.005 -1.58309,-0.0691 -1.95184,-0.14241 z"
         id="path6050"
         inkscape:connector-curvature="0" />
      <path
         style="fill:#000000"
         d="m 206.00709,386.10877 c -2.50879,-0.31867 -4.55967,-1.51655 -5.3877,-3.14685 -0.97141,-1.91257 -0.42114,-4.22659 1.54067,-6.47892 1.55101,-1.78069 4.43135,-3.62842 7.10327,-4.55673 2.04021,-0.70883 3.95553,-0.94402 6.09473,-0.74839 1.49545,0.13677 2.53368,0.38576 3.38999,0.81302 0.34904,0.17416 0.67854,0.31668 0.73224,0.31674 0.0647,6e-5 0.11411,-7.95569 0.14645,-23.57464 l 0.0488,-23.57472 23.76855,-3.68265 c 13.07271,-2.02545 23.80368,-3.66094 23.8466,-3.63441 0.0429,0.0265 0.0765,11.63333 0.0746,25.79289 -0.004,28.01056 0.0258,26.52529 -0.55432,27.906 -0.43982,1.04682 -0.94404,1.74578 -2.07172,2.8719 -2.07852,2.07564 -5.00624,3.59341 -8.30533,4.3056 -1.39755,0.30169 -4.37032,0.32809 -5.40258,0.048 -4.8221,-1.30854 -6.15179,-5.13724 -3.11244,-8.96193 2.01374,-2.53409 5.76038,-4.75146 9.40896,-5.5685 0.87713,-0.19642 1.26014,-0.2251 2.9137,-0.21818 2.24451,0.009 3.41429,0.20727 4.55343,0.77027 0.38341,0.18949 0.76787,0.34453 0.85435,0.34453 0.14407,0 0.15724,-1.73379 0.15724,-20.70103 0,-18.94019 -0.0134,-20.70617 -0.1572,-20.76136 -0.16043,-0.0616 -43.84206,6.66645 -44.23993,6.814 l -0.21868,0.0811 -0.0254,23.41005 -0.0254,23.41005 -0.30378,0.8488 c -0.43407,1.21284 -1.10009,2.22126 -2.18254,3.30461 -2.47219,2.47423 -6.26552,4.18704 -10.14295,4.57985 -1.14313,0.11581 -1.53156,0.1144 -2.50367,-0.009 z"
         id="path6048"
         inkscape:connector-curvature="0" />
    </g>
    <path
       style="fill:none;fill-rule:evenodd;stroke:#000000;stroke-width:5.19874334;stroke-linecap:butt;stroke-linejoin:round;stroke-miterlimit:4;stroke-dasharray:none;stroke-opacity:1"
       d="m 197.70013,455.62453 163.17117,0"
       id="path6062"
       inkscape:connector-curvature="0" />
    <path
       style="fill:none;fill-rule:evenodd;stroke:#000000;stroke-width:5.19874334;stroke-linecap:butt;stroke-linejoin:round;stroke-miterlimit:4;stroke-dasharray:none;stroke-opacity:1"
       d="m 197.70013,478.51362 163.17117,0"
       id="path6062-3"
       inkscape:connector-curvature="0" />
    <path
       style="fill:none;fill-rule:evenodd;stroke:#000000;stroke-width:5.19874334;stroke-linecap:butt;stroke-linejoin:round;stroke-miterlimit:4;stroke-dasharray:none;stroke-opacity:1"
       d="m 197.70013,501.4027 163.17117,0"
       id="path6062-3-2"
       inkscape:connector-curvature="0" />
    <path
       style="fill:none;fill-rule:evenodd;stroke:#000000;stroke-width:5.19874334;stroke-linecap:butt;stroke-linejoin:round;stroke-miterlimit:4;stroke-dasharray:none;stroke-opacity:1"
       d="m 197.70013,524.29183 163.17117,0"
       id="path6062-3-2-3"
       inkscape:connector-curvature="0" />
    <path
       style="fill:none;fill-rule:evenodd;stroke:#000000;stroke-width:5.19874334;stroke-linecap:butt;stroke-linejoin:round;stroke-miterlimit:4;stroke-dasharray:none;stroke-opacity:1"
       d="m 197.70013,547.1809 163.17117,0"
       id="path6062-3-2-3-4"
       inkscape:connector-curvature="0" />
  </g>
</svg>
